<mxfile host="drawio-plugin" modified="2022-09-21T08:41:13.500Z" agent="5.0 (Windows NT 6.2; Win64; x64) AppleWebKit/537.36 (KHTML, like Gecko) Chrome/89.0.4389.114 Safari/537.36" etag="S32FOmFEDcKGY78j-a8w" version="15.5.4" type="embed"><diagram id="wqUxKjskYEmHFFJuW9vH" name="Page-1"><mxGraphModel dx="1186" dy="745" grid="1" gridSize="10" guides="1" tooltips="1" connect="1" arrows="1" fold="1" page="1" pageScale="1" pageWidth="850" pageHeight="1100" math="0" shadow="0"><root><mxCell id="0"/><mxCell id="1" parent="0"/><mxCell id="33" value="" style="rounded=0;whiteSpace=wrap;html=1;" vertex="1" parent="1"><mxGeometry x="120" y="40" width="640" height="600" as="geometry"/></mxCell><mxCell id="2" value="Client" style="rounded=0;whiteSpace=wrap;html=1;" parent="1" vertex="1"><mxGeometry x="160" y="120" width="80" height="40" as="geometry"/></mxCell><mxCell id="3" value="Server" style="rounded=0;whiteSpace=wrap;html=1;" parent="1" vertex="1"><mxGeometry x="520" y="120" width="80" height="40" as="geometry"/></mxCell><mxCell id="4" value="" style="endArrow=none;dashed=1;html=1;dashPattern=1 3;strokeWidth=2;rounded=0;entryX=0.5;entryY=1;entryDx=0;entryDy=0;" parent="1" target="2" edge="1"><mxGeometry width="50" height="50" relative="1" as="geometry"><mxPoint x="200" y="600" as="sourcePoint"/><mxPoint x="490" y="270" as="targetPoint"/></mxGeometry></mxCell><mxCell id="5" value="" style="endArrow=none;dashed=1;html=1;dashPattern=1 3;strokeWidth=2;rounded=0;entryX=0.5;entryY=1;entryDx=0;entryDy=0;" parent="1" target="3" edge="1"><mxGeometry width="50" height="50" relative="1" as="geometry"><mxPoint x="560" y="600" as="sourcePoint"/><mxPoint x="290" y="170" as="targetPoint"/></mxGeometry></mxCell><mxCell id="6" value="" style="endArrow=classic;html=1;rounded=0;" parent="1" edge="1"><mxGeometry width="50" height="50" relative="1" as="geometry"><mxPoint x="200" y="200" as="sourcePoint"/><mxPoint x="560" y="200" as="targetPoint"/></mxGeometry></mxCell><mxCell id="7" value="POST- login/register&lt;br&gt;[username;password]" style="text;html=1;strokeColor=none;fillColor=none;align=center;verticalAlign=middle;whiteSpace=wrap;rounded=0;" parent="1" vertex="1"><mxGeometry x="320" y="170" width="120" height="30" as="geometry"/></mxCell><mxCell id="8" value="" style="endArrow=classic;html=1;rounded=0;startArrow=none;" parent="1" source="14" edge="1"><mxGeometry width="50" height="50" relative="1" as="geometry"><mxPoint x="600" y="280" as="sourcePoint"/><mxPoint x="200" y="250" as="targetPoint"/><Array as="points"/></mxGeometry></mxCell><mxCell id="18" style="rounded=0;orthogonalLoop=1;jettySize=auto;html=1;exitX=0;exitY=0.5;exitDx=0;exitDy=0;endArrow=none;endFill=0;" parent="1" source="11" edge="1"><mxGeometry relative="1" as="geometry"><mxPoint x="560" y="200" as="targetPoint"/></mxGeometry></mxCell><mxCell id="19" style="edgeStyle=none;rounded=0;orthogonalLoop=1;jettySize=auto;html=1;exitX=0;exitY=0.5;exitDx=0;exitDy=0;endArrow=none;endFill=0;startArrow=none;startFill=0;" parent="1" source="11" edge="1"><mxGeometry relative="1" as="geometry"><mxPoint x="560" y="280" as="targetPoint"/></mxGeometry></mxCell><mxCell id="11" value="Authenticate username &amp;amp; password&lt;br&gt;On success:200&lt;br&gt;On error:401" style="rounded=1;whiteSpace=wrap;html=1;" parent="1" vertex="1"><mxGeometry x="600" y="200" width="120" height="80" as="geometry"/></mxCell><mxCell id="12" value="" style="endArrow=classic;html=1;rounded=0;startArrow=none;" parent="1" source="16" edge="1"><mxGeometry width="50" height="50" relative="1" as="geometry"><mxPoint x="600" y="280" as="sourcePoint"/><mxPoint x="200" y="310" as="targetPoint"/><Array as="points"/></mxGeometry></mxCell><mxCell id="14" value="http200&lt;br&gt;bearer_token: JWT" style="rounded=1;whiteSpace=wrap;html=1;" parent="1" vertex="1"><mxGeometry x="320" y="230" width="120" height="40" as="geometry"/></mxCell><mxCell id="15" value="" style="endArrow=none;html=1;rounded=0;startArrow=none;" parent="1" target="14" edge="1"><mxGeometry width="50" height="50" relative="1" as="geometry"><mxPoint x="560" y="280" as="sourcePoint"/><mxPoint x="319.9999999999999" y="260" as="targetPoint"/><Array as="points"><mxPoint x="520" y="250"/></Array></mxGeometry></mxCell><mxCell id="16" value="http401&lt;br&gt;unauthorized" style="rounded=1;whiteSpace=wrap;html=1;" parent="1" vertex="1"><mxGeometry x="320" y="290" width="120" height="40" as="geometry"/></mxCell><mxCell id="17" value="" style="endArrow=none;html=1;rounded=0;" parent="1" target="16" edge="1"><mxGeometry width="50" height="50" relative="1" as="geometry"><mxPoint x="560" y="280" as="sourcePoint"/><mxPoint x="319.9999999999999" y="310" as="targetPoint"/><Array as="points"><mxPoint x="520" y="310"/></Array></mxGeometry></mxCell><mxCell id="20" value="" style="endArrow=classic;html=1;rounded=0;" parent="1" edge="1"><mxGeometry width="50" height="50" relative="1" as="geometry"><mxPoint x="200" y="400" as="sourcePoint"/><mxPoint x="560" y="400" as="targetPoint"/></mxGeometry></mxCell><mxCell id="21" value="GET - anything&lt;br&gt;[bearer_token]" style="text;html=1;strokeColor=none;fillColor=none;align=center;verticalAlign=middle;whiteSpace=wrap;rounded=0;" parent="1" vertex="1"><mxGeometry x="320" y="370" width="120" height="30" as="geometry"/></mxCell><mxCell id="22" value="" style="endArrow=classic;html=1;rounded=0;startArrow=none;" parent="1" source="27" edge="1"><mxGeometry width="50" height="50" relative="1" as="geometry"><mxPoint x="600" y="480" as="sourcePoint"/><mxPoint x="200" y="450" as="targetPoint"/><Array as="points"/></mxGeometry></mxCell><mxCell id="23" style="rounded=0;orthogonalLoop=1;jettySize=auto;html=1;exitX=0;exitY=0.5;exitDx=0;exitDy=0;endArrow=none;endFill=0;" parent="1" source="25" edge="1"><mxGeometry relative="1" as="geometry"><mxPoint x="560" y="400" as="targetPoint"/></mxGeometry></mxCell><mxCell id="24" style="edgeStyle=none;rounded=0;orthogonalLoop=1;jettySize=auto;html=1;exitX=0;exitY=0.5;exitDx=0;exitDy=0;endArrow=none;endFill=0;" parent="1" source="25" edge="1"><mxGeometry relative="1" as="geometry"><mxPoint x="560" y="480" as="targetPoint"/></mxGeometry></mxCell><mxCell id="25" value="Authenticate token, generate user, authorize user by roles&lt;br&gt;On success:200&lt;br&gt;On error:403" style="rounded=1;whiteSpace=wrap;html=1;" parent="1" vertex="1"><mxGeometry x="600" y="390" width="120" height="100" as="geometry"/></mxCell><mxCell id="26" value="" style="endArrow=classic;html=1;rounded=0;startArrow=none;" parent="1" source="29" edge="1"><mxGeometry width="50" height="50" relative="1" as="geometry"><mxPoint x="600" y="480" as="sourcePoint"/><mxPoint x="360" y="510" as="targetPoint"/><Array as="points"/></mxGeometry></mxCell><mxCell id="27" value="http200&lt;br&gt;bearer_token: JWT" style="rounded=1;whiteSpace=wrap;html=1;" parent="1" vertex="1"><mxGeometry x="320" y="430" width="120" height="40" as="geometry"/></mxCell><mxCell id="28" value="" style="endArrow=none;html=1;rounded=0;startArrow=none;" parent="1" target="27" edge="1"><mxGeometry width="50" height="50" relative="1" as="geometry"><mxPoint x="560" y="480" as="sourcePoint"/><mxPoint x="319.9999999999999" y="460" as="targetPoint"/><Array as="points"><mxPoint x="520" y="450"/></Array></mxGeometry></mxCell><mxCell id="29" value="http403&lt;br&gt;forbidden" style="rounded=1;whiteSpace=wrap;html=1;" parent="1" vertex="1"><mxGeometry x="400" y="490" width="120" height="40" as="geometry"/></mxCell><mxCell id="30" value="" style="endArrow=none;html=1;rounded=0;" parent="1" target="29" edge="1"><mxGeometry width="50" height="50" relative="1" as="geometry"><mxPoint x="560" y="480" as="sourcePoint"/><mxPoint x="319.9999999999999" y="510" as="targetPoint"/><Array as="points"><mxPoint x="520" y="510"/></Array></mxGeometry></mxCell><mxCell id="32" style="edgeStyle=orthogonalEdgeStyle;rounded=0;orthogonalLoop=1;jettySize=auto;html=1;startArrow=none;startFill=0;endArrow=classic;endFill=1;" edge="1" parent="1" source="31"><mxGeometry relative="1" as="geometry"><mxPoint x="200.0000000000001" y="510" as="targetPoint"/></mxGeometry></mxCell><mxCell id="31" value="Transform to http404" style="rounded=1;whiteSpace=wrap;html=1;" vertex="1" parent="1"><mxGeometry x="240" y="490" width="120" height="40" as="geometry"/></mxCell><mxCell id="34" value="&lt;font style=&quot;font-size: 18px&quot;&gt;Security Concept: Oh-my-class&lt;/font&gt;" style="text;html=1;strokeColor=none;fillColor=none;align=left;verticalAlign=middle;whiteSpace=wrap;rounded=0;" vertex="1" parent="1"><mxGeometry x="130" y="50" width="280" height="30" as="geometry"/></mxCell></root></mxGraphModel></diagram></mxfile>